<?xml version="1.0" encoding="UTF-8" standalone="no"?>
<svg xmlns:rdf="http://www.w3.org/1999/02/22-rdf-syntax-ns#" xmlns="http://www.w3.org/2000/svg" height="593" width="959" version="1.1" xmlns:cc="http://creativecommons.org/ns#" xmlns:dc="http://purl.org/dc/elements/1.1/">
 <path d="M233.09,519.31l1.94-3.56,2.26-0.32,0.32,0.81-2.1,3.07h-2.42zm10.18-3.72l6.15,2.59,2.1-0.33,1.61-3.88-0.64-3.39-4.21-0.49-4.04,1.78-0.97,3.72zm30.72,10.02l3.72,5.5,2.42-0.32,1.13-0.49,1.46,1.3,3.72-0.17,0.97-1.45-2.91-1.78-1.94-3.72-2.11-3.55-5.82,2.91-0.64,1.77zm20.21,8.9l1.29-1.94,4.69,0.97,0.64-0.49,6.15,0.65-0.33,1.29-2.58,1.46-4.37-0.33-5.49-1.61zm5.33,5.17l1.94,3.88,3.07-1.13,0.33-1.62-1.62-2.1-3.72-0.32v1.29zm6.95-1.13l2.26-2.91,4.69,2.42,4.37,1.13,4.36,2.75v1.94l-3.55,1.78-4.85,0.97-2.43-1.45-4.85-6.63zm16.65,15.52l1.62-1.3,3.39,1.62,7.6,3.56,3.4,2.1,1.61,2.42,1.94,4.37,4.05,2.58-0.33,1.3-3.88,3.23-4.2,1.46-1.46-0.65-3.07,1.78-2.42,3.23-2.27,2.91-1.77-0.16-3.56-2.59-0.32-4.52,0.64-2.43-1.61-5.66-2.11-1.78-0.16-2.58,2.27-0.97,2.1-3.07,0.48-0.97-1.61-1.78-0.33-2.1z" stroke="#FFF" stroke-miterlimit="4" stroke-dasharray="none" stroke-width="0.75" fill="#d3d3d3"/>
 <path d="M158.08,453.68l-0.33,85.35,1.62,0.97,3.07,0.16,1.46-1.13h2.58l0.16,2.91,6.96,6.79,0.48,2.59,3.4-1.94,0.64-0.16,0.33-3.07,1.45-1.62,1.13-0.16,1.94-1.46,3.07,2.1,0.65,2.91,1.94,1.14,1.13,2.42,3.88,1.78,3.4,5.98,2.75,3.88,2.26,2.75,1.45,3.72,5.02,1.77,5.17,2.11,0.97,4.36,0.48,3.07-0.97,3.4-1.78,2.26-1.61-0.81-1.46-3.07-2.74-1.45-1.78-1.14-0.81,0.81,1.45,2.75,0.17,3.72-1.14,0.48-1.94-1.94-2.1-1.29,0.49,1.62,1.29,1.78-0.81,0.8s-0.81-0.32-1.29-0.97c-0.49-0.64-2.1-3.39-2.1-3.39l-0.97-2.26s-0.33,1.29-0.97,0.97c-0.65-0.33-1.3-1.46-1.3-1.46l1.78-1.94-1.45-1.45v-5.02h-0.81l-0.81,3.4-1.13,0.48-0.97-3.71-0.65-3.72-0.81-0.49,0.33,5.66v1.13l-1.46-1.29-3.55-5.98-2.11-0.49-0.64-3.72-1.62-2.91-1.62-1.13v-2.26l2.11-1.29-0.49-0.33-2.59,0.65-3.39-2.43-2.59-2.9-4.85-2.59-4.04-2.59,1.29-3.23v-1.62l-1.77,1.62-2.91,1.13-3.72-1.13-5.66-2.43h-5.5l-0.64,0.49-6.47-3.88-2.1-0.32-2.75-5.82-3.56,0.32-3.55,1.45,0.48,4.53,1.13-2.91,0.97,0.32-1.45,4.37,3.23-2.75,0.65,1.62-3.88,4.36-1.29-0.32-0.49-1.94-1.29-0.81-1.3,1.13-2.74-1.78-3.08,2.11-1.77,2.1-3.4,2.1-4.69-0.16-0.48-2.1,3.72-0.65v-1.29l-2.27-0.65,0.97-2.43,2.27-3.88v-1.77l0.16-0.81,4.36-2.27,0.97,1.3h2.75l-1.29-2.59-3.72-0.32-5.01,2.75-2.43,3.39-1.77,2.59-1.14,2.26-4.2,1.46-3.071,2.58-0.324,1.62,2.264,0.97,0.808,2.1-2.748,3.23-6.467,4.21-7.759,4.2-2.102,1.13-5.335,1.13-5.335,2.27,1.779,1.29-1.455,1.45-0.485,1.14-2.749-0.97-3.233,0.16-0.808,2.26h-0.97l0.323-2.42-3.556,1.29-2.91,0.97-3.395-1.29-2.91,1.94h-3.233l-2.102,1.29-1.616,0.81-2.102-0.33-2.587-1.13-2.263,0.65-0.97,0.97-1.616-1.13v-1.94l3.071-1.3,6.305,0.65,4.365-1.62,2.101-2.1,2.91-0.64,1.779-0.81,2.748,0.16,1.616,1.29,0.97-0.32,2.264-2.75,3.071-0.97,3.395-0.65,1.293-0.32,0.647,0.49h0.808l1.294-3.72,4.041-1.46,1.94-3.71,2.263-4.53,1.617-1.46,0.323-2.58-1.616,1.29-3.395,0.65-0.647-2.43-1.293-0.32-0.97,0.97-0.162,2.91-1.455-0.16-1.455-5.82-1.293,1.29-1.132-0.48-0.323-1.94-4.041,0.16-2.102,1.13-2.587-0.32,1.455-1.46,0.485-2.59-0.646-1.94,1.455-0.97,1.293-0.16-0.647-1.78v-4.36l-0.97-0.97-0.808,1.45h-6.143l-1.455-1.29-0.647-3.88-2.101-3.56v-0.97l2.101-0.8,0.162-2.11,1.132-1.13-0.809-0.48-1.293,0.48-1.132-2.75,0.97-5.01,4.527-3.23,2.586-1.62,1.94-3.71,2.749-1.3,2.586,1.13,0.323,2.43,2.425-0.32,3.234-2.43,1.616,0.65,0.97,0.64h1.617l2.263-1.29,0.808-4.36s0.324-2.91,0.97-3.4c0.647-0.48,0.97-0.97,0.97-0.97l-1.131-1.94-2.587,0.81-3.233,0.81-1.94-0.49-3.557-1.78-5.011-0.16-3.557-3.72,0.485-3.88,0.647-2.42-2.102-1.78-1.94-3.72,0.485-0.81,6.79-0.48h2.102l0.97,0.97h0.646l-0.161-1.62,3.88-0.64,2.586,0.32,1.455,1.13-1.455,2.1-0.485,1.46,2.748,1.61,5.012,1.78,1.778-0.97-2.263-4.36-0.97-3.24,0.97-0.8-3.395-1.94-0.485-1.14,0.485-1.61-0.808-3.88-2.91-4.69-2.425-4.2,2.91-1.94h3.233l1.778,0.64,4.204-0.16,3.718-3.55,1.131-3.08,3.719-2.42,1.616,0.97,2.748-0.65,3.72-2.1,1.13-0.16,0.97,0.81,4.53-0.16,2.74-3.08h1.14l3.55,2.43,1.94,2.1-0.48,1.13,0.64,1.13,1.62-1.61,3.88,0.32,0.32,3.72,1.94,1.45,7.12,0.65,6.3,4.2,1.46-0.97,5.17,2.59,2.1-0.65,1.94-0.8,4.85,1.94,4.37,2.91zm-115.11,28.93l2.102,5.34-0.162,0.97-2.91-0.33-1.778-4.04-1.779-1.45h-2.425l-0.161-2.59,1.778-2.42,1.132,2.42,1.455,1.46,2.748,0.64zm-2.587,33.47l3.719,0.8,3.718,0.97,0.808,0.97-1.617,3.72-3.071-0.16-3.395-3.56-0.162-2.74zm-20.692-14.07l1.131,2.59,1.132,1.61-1.132,0.81-2.101-3.07v-1.94h0.97zm-13.742,73.07l3.3949-2.26,3.3946-0.97,2.587,0.32,0.485,1.62,1.94,0.48,1.94-1.94-0.324-1.61,2.749-0.65,2.91,2.59-1.132,1.78-4.365,1.13-2.748-0.49-3.718-1.13-4.3653,1.46-1.6166,0.32-1.1316-0.65zm48.984-4.52l1.616,1.94,2.102-1.62-1.455-1.29-2.263,0.97zm2.91,3.07l1.131-2.27,2.102,0.33-0.808,1.94h-2.425zm23.602-1.94l1.455,1.78,0.97-1.14-0.808-1.94-1.617,1.3zm8.73-12.45l1.132,5.82,2.91,0.81,5.011-2.91,4.368-2.59-1.62-2.42,0.49-2.43-2.11,1.29-2.906-0.8,1.616-1.14,1.94,0.81,3.88-1.78,0.49-1.45-2.43-0.81,0.81-1.94-2.75,1.94-4.688,3.56-4.85,2.91-1.293,1.13zm42.351-19.88l2.43-1.46-0.97-1.78-1.78,0.97,0.32,2.27z" stroke="#FFF" stroke-miterlimit="4" stroke-dasharray="none" stroke-width="0.75" fill="#d3d3d3"/>
 <path d="M759.82,439.14l2.26,7.32,3.73,9.74,5.34,9.38,3.72,6.3,4.84,5.5,4.05,3.72,1.61,2.91-1.13,1.29-0.81,1.3,2.91,7.43,2.91,2.91,2.59,5.34,3.56,5.82,4.52,8.24,1.3,7.6,0.48,11.96,0.65,1.78-0.33,3.4-2.42,1.29,0.32,1.94-0.64,1.94,0.32,2.42,0.48,1.94-2.74,3.24-3.08,1.45-3.88,0.16-1.45,1.62-2.43,0.97-1.29-0.49-1.13-0.97-0.32-2.91-0.81-3.39-3.4-5.17-3.55-2.27-3.88-0.32-0.81,1.29-3.07-4.36-0.65-3.56-2.59-4.04-1.77-1.13-1.62,2.1-1.78-0.32-2.1-5.01-2.91-3.88-2.91-5.34-2.59-3.07-3.55-3.72,2.1-2.42,3.23-5.5-0.16-1.62-4.53-0.97-1.61,0.65,0.32,0.65,2.59,0.97-1.46,4.52-0.81,0.49-1.78-4.04-1.29-4.85-0.32-2.75,1.45-4.69v-9.54l-3.07-3.72-1.29-3.07-5.18-1.29-1.93-0.65-1.62-2.58-3.4-1.62-1.13-3.4-2.75-0.97-2.42-3.71-4.2-1.46-2.91-1.45h-2.59l-4.04,0.81-0.16,1.94,0.8,0.97-0.48,1.13-3.07-0.16-3.72,3.55-3.56,1.94h-3.88l-3.23,1.29-0.32-2.74-1.62-1.94-2.91-1.13-1.62-1.46-8.08-3.88-7.6-1.78-4.36,0.65-5.98,0.48-5.99,2.11-3.47,0.61-0.24-8.05-2.59-1.94-1.78-1.78,0.33-3.07,10.18-1.29,25.54-2.91,6.79-0.65,5.44,0.28,2.59,3.88,1.45,1.45,8.1,0.52,10.82-0.65,21.51-1.29,5.45-0.68,5.1,0.21,0.43,2.91,2.23,0.81,0.24-4.63-1.53-4.18,1.31-1.44,5.55,0.46,5.18,0.32zm12.54,132.41l2.43-0.65,1.29-0.24,1.46-2.35,2.34-1.61,1.29,0.48,1.7,0.33,0.4,1.05-3.47,1.21-4.2,1.45-2.35,1.22-0.89-0.89zm13.5-5.01l1.21,1.05,2.75-2.1,5.34-4.21,3.71-3.88,2.51-6.63,0.97-1.69,0.16-3.4-0.73,0.49-0.97,2.83-1.45,4.6-3.23,5.26-4.37,4.2-3.39,1.94-2.51,1.54z" stroke="#FFF" stroke-miterlimit="4" stroke-dasharray="none" stroke-width="0.75" fill="#d3d3d3"/>
 <path d="M880.8,142.42l0.87-1.07,1.09-3.29-2.54-0.92-0.49-3.07-3.88-1.13-0.32-2.75-7.28-23.44-4.6-14.541-0.9-0.006-0.64,1.617-0.65-0.485-0.97-0.97-1.45,1.94-0.05,5.032,0.31,5.663,1.94,2.75v4.04l-3.72,5.07-2.59,1.13v1.13l1.14,1.78v8.57l-0.81,9.21-0.16,4.85,0.97,1.29-0.17,4.53-0.48,1.78,0.97,0.71,16.79-4.43,2.17-0.6,1.84-2.77,3.61-1.62z" stroke="#FFF" stroke-miterlimit="4" stroke-dasharray="none" stroke-width="0.75" fill="#d3d3d3"/>
 <path stroke="#a9a9a9" stroke-width="2" d="M211,493v55l36,45m-247-168h144l67,68h86l53,54v46" fill="none"/>
 <g stroke="#FFF" stroke-dasharray="none" stroke-miterlimit="4" stroke-width="0.75" fill="#d3d3d3">
  <path d="M697.86,177.24l-3.23-8.25-2.27-9.05-2.42-3.23-2.59-1.78-1.61,1.13-3.88,1.78-1.94,5.01-2.75,3.72-1.13,0.64-1.46-0.64s-2.59-1.46-2.42-2.1c0.16-0.65,0.48-5.02,0.48-5.02l3.4-1.29,0.8-3.39,0.65-2.59,2.43-1.62-0.33-10.02-1.61-2.26-1.3-0.81-0.81-2.1,0.81-0.81,1.62,0.32,0.16-1.61-2.42-2.27-1.3-2.58h-2.58l-4.53-1.46-5.5-3.39h-2.75l-0.64,0.64-0.97-0.48-3.07-2.27-2.91,1.78-2.91,2.27,0.32,3.55,0.97,0.33,2.1,0.48,0.49,0.81-2.59,0.81-2.59,0.32-1.45,1.78-0.32,2.1,0.32,1.62,0.32,5.49-3.55,2.1-0.65-0.16v-4.2l1.29-2.42,0.65-2.43-0.81-0.81-1.94,0.81-0.97,4.2-2.75,1.13-1.78,1.94-0.16,0.97,0.65,0.81-0.65,2.59-2.26,0.48v1.14l0.81,2.42-1.13,6.14-1.62,4.05,0.65,4.68,0.48,1.14-0.81,2.42-0.32,0.81-0.32,2.75,3.55,5.98,2.91,6.46,1.46,4.85-0.81,4.69-0.97,5.98-2.43,5.18-0.32,2.75-3.26,3.08,4.41-0.16,21.42-2.26,7.28-0.99,0.09,1.66,6.86-1.21,10.29-1.5,3.86-0.46,0.14-0.59,0.16-1.45,2.1-3.72,2-1.74-0.22-5.05,1.59-1.6,1.09-0.34,0.23-3.56,1.53-3.03,1.05,0.61,0.17,0.64,0.8,0.16,1.94-0.97-0.32-9.53z"/>
  <path d="M581.62,82.059l1.83-2.058,2.17-0.8,5.37-3.886,2.29-0.572,0.46,0.457-5.15,5.144-3.31,1.944-2.06,0.914-1.6-1.143zm86.17,32.131l0.65,2.5,3.23,0.16,1.3-1.21s-0.08-1.45-0.41-1.61c-0.32-0.17-1.61-1.86-1.61-1.86l-2.19,0.24-1.61,0.16-0.33,1.13,0.97,0.49zm-100.3-2.98l0.72-0.58,2.75-0.81,3.55-2.26v-0.97l0.65-0.65,5.98-0.97,2.43-1.94,4.36-2.1,0.16-1.29,1.94-2.91,1.78-0.808,1.29-1.779,2.27-2.263,4.36-2.425,4.69-0.485,1.13,1.132-0.32,0.97-3.72,0.97-1.45,3.071-2.27,0.809-0.48,2.425-2.43,3.233-0.32,2.59,0.81,0.48,0.97-1.13,3.55-2.91,1.3,1.29h2.26l3.23,0.97,1.46,1.13,1.45,3.08,2.75,2.74,3.88-0.16,1.46-0.97,1.61,1.3,1.62,0.48,1.29-0.81h1.13l1.62-0.97,4.04-3.55,3.4-1.14,6.63-0.32,4.52-1.94,2.59-1.29,1.45,0.16v5.66l0.49,0.32,2.91,0.81,1.94-0.49,6.14-1.61,1.13-1.13,1.46,0.48v6.95l3.23,3.07,1.29,0.65,1.3,0.97-1.3,0.32-0.8-0.32-3.72-0.48-2.1,0.64-2.27-0.16-3.23,1.46h-1.78l-5.82-1.3-5.17,0.16-1.94,2.59-6.95,0.65-2.43,0.81-1.13,3.07-1.29,1.13-0.49-0.16-1.45-1.62-4.53,2.43h-0.65l-1.13-1.62-0.81,0.16-1.94,4.37-0.97,4.04-3.18,7-1.17-1.04-1.37-1.03-1.95-10.29-3.54-1.37-2.05-2.28-12.12-2.75-2.86-1.03-8.23-2.17-7.89-1.14-3.72-5.15z"/>
 </g>
 <path d="M844.48,154.06l0.32-5.35-2.89-10.78-0.65-0.33-2.91-1.29,0.81-2.91-0.81-2.1-2.7-4.64,0.97-3.88-0.8-5.17-2.43-6.47-0.81-4.92,26.42-6.734,0.31,5.524,1.92,2.74v4.04l-3.71,5.06-2.58,1.14-0.02,1.12,1.31,1.52-0.31,8.1-0.61,9.26-0.22,5.56,0.97,1.29-0.17,4.57-0.48,1.69,1.01,0.73-7.43,1.5-4.51,0.73z" stroke="#FFF" stroke-miterlimit="4" stroke-dasharray="none" stroke-width="0.75" fill="#d3d3d3"/>
 <path d="M922.84,78.831l1.94,2.101,2.26,3.718v1.94l-2.1,4.689-1.94,0.646-3.39,3.072-4.85,5.493h-1.3c-0.64,0-0.97-2.098-0.97-2.098l-1.77,0.161-0.97,1.457-2.43,1.45-0.97,1.46,1.62,1.45-0.49,0.65-0.48,2.75-1.94-0.16v-1.62l-0.33-1.29-1.45,0.32-1.78-3.23-2.1,1.29,1.29,1.45,0.33,1.14-0.81,1.29,0.32,3.07,0.16,1.62-1.61,2.58-2.91,0.49-0.33,2.91-5.33,3.07-1.3,0.49-1.61-1.46-3.07,3.56,0.97,3.23-1.46,1.29-0.16,4.37-1.12,6.26-2.47-1.16-0.48-3.07-3.88-1.13-0.32-2.75-7.28-23.44-4.7-14.64,1.42-0.118,1.52,0.41v-2.587l1.31-4.496,2.58-4.688,1.46-4.042-1.94-2.425v-5.981l0.81-0.97,0.8-2.748-0.16-1.455-0.16-4.85,1.78-4.85,2.91-8.891,2.1-4.203h1.29l1.3,0.161v1.132l1.29,2.263,2.75,0.647,0.81-0.809v-0.97l4.04-2.909,1.78-1.779,1.45,0.162,5.98,2.425,1.94,0.97,9.06,29.907h5.98l0.81,1.94,0.16,4.85,2.91,2.263h0.8l0.17-0.485-0.49-1.132,2.75-0.161zm-20.93,30.149l1.53-1.54,1.38,1.05,0.56,2.43-1.69,0.89-1.78-2.83zm6.71-5.9l1.78,1.86s1.29,0.08,1.29-0.25c0-0.32,0.24-2.02,0.24-2.02l0.89-0.8-0.81-1.78-2.02,0.72-1.37,2.27z" stroke="#FFF" stroke-miterlimit="4" stroke-dasharray="none" stroke-width="0.75" fill="#d3d3d3"/>
 <path d="M874.07,178.9l-3.7-14.96,6.27-1.85,2.19,1.93,3.31,4.32,2.69,4.4-3,1.63-1.29-0.16-1.14,1.78-2.42,1.94-2.91,0.97z" stroke="#FFF" stroke-miterlimit="4" stroke-dasharray="none" stroke-width="0.75" fill="#d3d3d3"/>
 <path d="M830.38,188.75l-1.13-0.97-2.59-0.17-2.26-1.94-1.63-6.13-3.46,0.1-2.44-2.71-19.39,4.38-43,8.73-7.53,1.23-0.74-6.47,1.43-1.13,1.29-1.13,0.97-1.62,1.78-1.13,1.94-1.77,0.48-1.62,2.11-2.75,1.13-0.97-0.16-0.97-1.3-3.07-1.78-0.16-1.94-6.15,2.91-1.77,4.37-1.46,4.04-1.29,3.23-0.49,6.31-0.16,1.94,1.29,1.62,0.17,2.1-1.3,2.58-1.13,5.18-0.48,2.1-1.78,1.78-3.24,1.61-1.94h2.1l1.94-1.13,0.17-2.26-1.46-2.1-0.32-1.46,1.13-2.1v-1.45h-1.78l-1.78-0.81-0.8-1.13-0.17-2.59,5.82-5.5,0.65-0.8,1.45-2.91,2.91-4.53,2.75-3.72,2.1-2.42,2.42-1.83,3.08-1.25,5.5-1.29,3.23,0.16,4.53-1.45,7.56-2.07,0.52,4.98,2.43,6.46,0.81,5.18-0.97,3.88,2.58,4.52,0.81,2.1-0.81,2.91,2.91,1.3,0.65,0.32,3.07,10.99-0.54,5.06-0.48,10.83,0.81,5.5,0.81,3.56,1.45,7.27v8.08l-1.13,2.27,1.84,1.99,0.79,1.68-1.94,1.78,0.33,1.29,1.29-0.32,1.46-1.3,2.26-2.58,1.13-0.65,1.62,0.65,2.26,0.16,7.92-3.88,2.91-2.75,1.3-1.45,4.2,1.61-3.4,3.56-3.88,2.91-7.11,5.33-2.59,0.97-5.82,1.94-4.04,1.14-1.17-0.54-0.25-3.69,0.49-2.74-0.16-2.11-2.82-1.69-4.52-0.97-3.88-1.14-3.72-1.77z" stroke="#FFF" stroke-dasharray="none" stroke-miterlimit="4" stroke-width="0.75" fill="#d3d3d3"/>
 <path d="M825.12,224.69l1.31-0.27,2.33-1.25,1.21-2.49,1.62-2.26,3.23-3.07v-0.81l-2.42-1.61-3.56-2.43-0.97-2.59-2.75-0.32-0.16-1.13-0.81-2.75,2.27-1.13,0.16-2.43-1.29-1.29,0.16-1.62,1.94-3.07v-3.07l2.69-2.65-0.92-0.67-2.52-0.19-2.29-1.94-1.55-6.12-3.51,0.1-2.45-2.7-18.09,4.2-43.01,8.73-8.89,1.45-0.62-6.52-5.36,5.07-1.29,0.48-4.21,3.01,2.91,19.14,2.49,9.73,3.57,19.26,3.27-0.64,11.94-1.5,37.93-7.67,14.87-2.82,8.3-1.62,0.27-0.24,2.1-1.62,2.1-0.68z" stroke="#FFF" stroke-miterlimit="4" stroke-dasharray="none" stroke-width="0.75" fill="#d3d3d3"/>
 <path d="M829.68,188.46l-2.32,2.73v3.08l-1.94,3.07-0.16,1.61,1.29,1.3-0.16,2.42-2.27,1.13,0.81,2.75,0.16,1.13,2.75,0.33,0.97,2.58,3.56,2.43,2.42,1.62v0.8l-2.98,2.7-1.62,2.26-1.45,2.75-2.26,1.29-0.47,1.61-0.24,1.21-0.61,2.61,1.09,2.24,3.24,2.91,4.85,2.26,4.04,0.65,0.16,1.46-0.81,0.97,0.32,2.74h0.81l2.1-2.42,0.81-4.85,2.75-4.04,3.07-6.47,1.13-5.5-0.64-1.13-0.16-9.37-1.62-3.4-1.13,0.81-2.75,0.32-0.49-0.48,1.14-0.97,2.1-1.94,0.06-1.1-0.38-3.43,0.57-2.75-0.12-1.97-2.81-1.75-5.09-1.17-4.13-1.38-3.59-1.65z" stroke="#FFF" stroke-miterlimit="4" stroke-dasharray="none" stroke-width="0.75" fill="#d3d3d3"/>
 <path d="M825.63,228.28l0.36-2.15,0.38-1.69-1.62,0.4-1.62,0.47-2.21,1.76,1.72,5.04,2.27,5.66,2.1,9.7,1.62,6.31,5.01-0.17,6.14-1.18-2.26-7.38-0.97,0.48-3.56-2.42-1.78-4.69-1.94-3.56-3.15-2.87-0.86-2.1,0.37-1.61z" stroke="#FFF" stroke-linecap="butt" stroke-miterlimit="4" stroke-dasharray="none" stroke-width="0.75" fill="#d3d3d3"/>
 <path d="M839.79,252.41l-6.01,1.21-5.14,0.12-1.84-6.93-1.93-9.17-2.57-6.18-1.29-4.4-7.51,1.62-14.87,2.82-37.45,7.55,1.13,5.02,0.97,5.65,0.32-0.32,2.1-2.42,2.27-2.62,2.42-0.62,1.46-1.45,1.77-2.59,1.3,0.65,2.91-0.33,2.58-2.1,2.01-1.45,1.85-0.49,1.64,1.13,2.91,1.46,1.94,1.78,1.21,1.53,4.13,1.7v2.91l5.49,1.29,1.15,0.55,1.41-2.03,2.88,1.97-1.28,2.48-0.76,3.99-1.78,2.58v2.1l0.65,1.78,5.06,1.36,4.31-0.06,3.07,0.97,2.1,0.32,0.97-2.1-1.45-2.1v-1.78l-2.43-2.1-2.1-5.5,1.3-5.34-0.17-2.1-1.29-1.29s1.46-1.62,1.46-2.26c0-0.65,0.48-2.1,0.48-2.1l1.94-1.3,1.94-1.61,0.49,0.97-1.46,1.61-1.29,3.72,0.32,1.13,1.78,0.32,0.48,5.5-2.1,0.97,0.33,3.56,0.48-0.16,1.13-1.94,1.62,1.77-1.62,1.3-0.32,3.39,2.59,3.4,3.87,0.48,1.62-0.81,3.24,4.19,1.36,0.53,6.65-2.79,2.01-4.03-0.44-4.91zm-15.97,9.03l1.13,2.51,0.17,1.78,1.13,1.86s0.89-0.89,0.89-1.22c0-0.32-0.73-3.07-0.73-3.07l-0.73-2.34-1.86,0.48z" stroke="#FFF" stroke-miterlimit="4" stroke-dasharray="none" stroke-width="0.75" fill="#d3d3d3"/>
 <path d="M831.64,266.07l-0.15-1.95,6.46-2.55-0.77,3.22-2.92,3.78-0.42,4.58,0.46,3.4-1.83,4.97-2.16,1.92-1.47-4.64,0.44-5.45,1.59-4.18,0.77-3.1zm3.34,28.3l-58.18,12.58-37.42,5.27-6.68-0.37-2.59,1.93-7.33,0.22-8.39,0.97-10.91,1.62,10.47-5.61-0.02-2.08,1.52-2.14,10.56-11.5,3.94,4.47,3.79,0.97,2.54-1.14,2.24-1.31,2.54,1.34,3.91-1.43,1.88-4.56,2.6,0.54,2.85-2.13,1.8,0.5,2.83-3.68,0.35-2.08-0.97-1.28,1.01-1.86,5.27-12.28,0.62-5.74,1.23-0.52,2.17,2.44,3.94-0.3,1.93-7.57,2.79-0.56,1.05-2.74,2.58-2.35,2.78-5.7,0.08-5.06,9.82,3.82c0.68,0.34,0.83-5.05,0.83-5.05l3.66,1.6,0.07,2.94,5.78,1.3,2.13,1.17,1.66,2.06-0.65,3.65-1.95,2.59,0.11,2.06,0.59,1.85,4.98,1.27,4.45,0.04,3.07,0.96,1.94,0.31,0.72,3.08,3.19,0.41,0.86,1.2-0.43,4.69,1.37,1.1-0.48,1.93,1.23,0.79-0.22,1.38-2.7-0.09,0.09,1.61,2.28,1.55,0.13,1.41,1.77,1.78,0.49,2.53-2.55,1.38,1.57,1.49,5.8-1.68,3.61,6.01z" stroke="#FFF" stroke-miterlimit="4" stroke-dasharray="none" stroke-width="0.75" fill="#d3d3d3"/>
 <path d="M761.19,238.97l1.11,4.94,1.08,6.03,2.13-2.58,2.26-3.07,2.54-0.61,1.46-1.46,1.78-2.59,1.44,0.65,2.91-0.32,2.59-2.1,2-1.46,1.85-0.48,1.3,1.01,3.65,1.83,1.94,1.77,1.37,1.3-0.76,5.55-5.84-2.54-4.24-1.62-0.1,5.18-2.75,5.53-2.53,2.43-1.19,2.75-2.65,0.5-0.89,3.6-1.05,3.95-3.96,0.34-2.33-2.44-1.07,0.56-0.63,5.47-1.35,3.54-4.96,10.95,0.9,1.16-0.21,1.91-2.81,3.89-1.81-0.55-2.97,2.16-2.54-0.57-2,4.55s-3.26,1.44-3.92,1.37c-0.16-0.01-2.47-1.25-2.47-1.25l-2.34,1.38-2.41,1.05-3.74-0.89-1.12-1.17-2.19-3.02-3.15-1.99-1.71-3.62-4.28-3.47-0.65-2.27-2.59-1.45-0.8-1.62-0.25-5.25,2.19-0.08,1.94-0.81,0.16-2.75,1.61-1.45,0.17-5.02,0.97-3.88,1.29-0.64,1.29,1.13,0.49,1.78,1.78-0.97,0.48-1.62-1.13-1.78v-2.42l0.97-1.3,2.26-3.39,1.3-1.46,2.1,0.49,2.26-1.62,3.07-3.39,2.26-3.88,0.33-5.66,0.48-5.01v-4.69l-1.13-3.07,0.97-1.46,1.28-1.29,3.5,19.83,4.63-0.75,12.43-1.8z" stroke="#FFF" stroke-miterlimit="4" stroke-dasharray="none" stroke-width="0.75" fill="#d3d3d3"/>
 <path d="M735.32,193.33l-6.09,4.05-3.88,2.26-3.39,3.72-4.04,3.88-3.24,0.81-2.91,0.49-5.49,2.58-2.11,0.16-3.39-3.07-5.17,0.65-2.59-1.46-2.38-1.35-4.89,0.71-10.19,1.61-11.21,2.19,1.3,14.63,1.78,13.74,2.58,23.44,0.57,4.83,4.12-0.13,2.43-0.81,3.36,1.51,2.07,4.36,5.14-0.01,1.89,2.11,1.76-0.06,2.54-1.34,2.5,0.37,5.43,0.48,1.72-2.13,2.35-1.29,2.07-0.69,0.65,2.75,1.77,0.97,3.48,2.35,2.18-0.08,1.33-0.5,0.19-2.76,1.58-1.45,0.1-4.8s1.03-4.1,1.03-4.1l1.3-0.61,1.32,1.15,0.54,1.7,1.72-1.04,0.43-1.46-1.11-1.9,0.06-2.32,0.75-1.07,2.16-3.31,1.05-1.54,2.1,0.49,2.26-1.62,3.07-3.4,2.77-4.07,0.32-5.06,0.49-5.01-0.18-5.31-0.95-2.89,0.35-1.19,1.8-1.75-2.29-9.05-2.91-19.36z" stroke="#FFF" stroke-miterlimit="4" stroke-dasharray="none" stroke-width="0.75" fill="#d3d3d3"/>
 <path d="M619.57,299.97l0.06-2.86,0.49-4.52,2.26-2.91,1.78-3.88,2.59-4.21-0.49-5.82-1.78-2.74-0.32-3.24,0.81-5.49-0.49-6.96-1.29-16-1.29-15.36-0.97-11.72,3.07,0.89,1.45,0.97,1.14-0.32,2.1-1.94,2.83-1.62,5.09-0.16,21.99-2.26,5.57-0.54,1.5,15.96,4.26,36.84,0.59,5.77-0.37,2.27,1.23,1.79,0.1,1.37-2.52,1.6-3.54,1.55-3.21,0.55-0.59,4.87-4.58,3.31-2.8,4.01,0.33,2.38-0.58,1.54h-3.33l-1.59-1.62-2.49,1.26-2.68,1.5,0.16,3.06-1.19,0.26-0.47-1.02-2.17-1.5-3.25,1.34-1.55,3-1.44-0.81-1.45-1.59-4.47,0.48-5.59,0.97-2.91,1.55z" stroke="#FFF" stroke-dasharray="none" stroke-miterlimit="4" stroke-width="0.75" fill="#d3d3d3"/>
 <path d="M619.54,300.34l0.03-3.23,0.57-4.64,2.33-2.92,1.87-4.07,2.23-4-0.37-5.25-2-3.55-0.1-3.34,0.69-5.27-0.82-7.18-1.07-15.78-1.29-15.01-0.92-11.64-0.28-0.93-0.8-2.58-1.3-3.72-1.61-1.78-1.46-2.58-0.23-5.49-45.8,2.59,0.23,2.38,2.29,0.68,0.91,1.15,0.46,1.82,3.88,3.43,0.69,2.29-0.69,3.43-1.82,3.66-0.69,2.51-2.29,1.83-1.83,0.69-5.25,1.37-0.69,1.83-0.69,2.06,0.69,1.37,1.83,1.6-0.23,4.11-1.83,1.6-0.68,1.6v2.75l-1.83,0.45-1.6,1.15-0.23,1.37,0.23,2.06-1.72,1.31-1.03,2.8,0.46,3.66,2.29,7.32,7.31,7.54,5.49,3.66-0.23,4.34,0.91,1.37,6.41,0.46,2.74,1.37-0.69,3.66-2.28,5.94-0.69,3.21,2.29,3.88,6.4,5.26,4.57,0.69,2.06,5.03,2.06,3.2-0.92,2.97,1.6,4.11,1.83,2.06,1.42-0.88,0.9-2.07,2.22-1.75,2.13-0.62,2.6,1.18,3.63,1.38,1.19-0.3,0.2-2.26-1.29-2.41,0.3-2.38,1.84-1.34,3.02-0.81,1.27-0.46-0.62-1.39-0.79-2.35,1.43-0.98,1.16-3.22z" stroke="#FFF" stroke-miterlimit="4" stroke-dasharray="none" stroke-width="0.75" fill="#d3d3d3"/>
 <path d="M874.07,178.86l-3.68-14.88-4.72,0.92-21.23,4.75,1,3.22,1.46,7.28,0.18,8.96-1.22,2.18,1.92,1.93,4.27-3.9,3.55-3.24,1.94-2.1,0.81,0.65,2.75-1.46,5.17-1.13,7.8-3.18z" stroke="#FFF" stroke-miterlimit="4" stroke-dasharray="none" stroke-width="0.75" fill="#d3d3d3"/>
 <path d="M615.07,197.37l-0.07-3.16-1.18-4.53-0.65-6.14-1.13-2.42,0.97-3.07,0.81-2.91,1.45-2.59-0.64-3.4-0.65-3.55,0.49-1.78,1.94-2.43,0.16-2.74-0.81-1.3,0.65-2.58-0.46-4.17,2.75-5.66,2.91-6.79,0.16-2.27-0.32-0.97-0.81,0.49-4.2,6.3-2.75,4.05-1.94,1.77-0.81,2.27-1.95,0.81-1.13,1.94-1.46-0.33-0.16-1.78,1.29-2.42,2.1-4.69,1.78-1.62,0.99-2.35-2.56-1.91-1.97-10.36-3.55-1.34-1.95-2.31-12.13-2.72-2.87-1.02-8.21-2.16-7.92-1.16-3.77-5.13-0.75,0.55-1.2-0.16-0.64-1.13-1.34,0.29-1.13,0.17-1.78,0.97-0.97-0.65,0.65-1.94,1.94-3.07,1.13-1.13-1.94-1.46-2.1,0.81-2.91,1.94-7.44,3.23-2.91,0.65-2.91-0.49-0.98-0.87-2.11,2.83-0.23,2.74v8.46l-1.15,1.6-5.25,3.89-2.29,5.95,0.46,0.22,2.51,2.06,0.69,3.2-1.83,3.2v3.89l0.46,6.63,2.97,2.97h3.43l1.83,3.2,3.43,0.46,3.88,5.71,7.09,4.12,2.06,2.74,0.91,7.43,0.69,3.32,2.28,1.6,0.23,1.37-2.06,3.43,0.23,3.2,2.52,3.89,2.51,1.14,2.98,0.46,1.34,1.38,45.3-2.67z" stroke="#FFF" stroke-miterlimit="4" stroke-dasharray="none" stroke-width="0.75" fill="#d3d3d3"/>
 <path d="M834.98,294.32l2.09,4.91,3.55,6.47,2.43,2.42,0.64,2.27-2.42,0.16,0.81,0.65-0.33,4.2-2.58,1.29-0.65,2.1-1.29,2.91-3.72,1.62-2.42-0.32-1.46-0.16-1.62-1.3,0.33,1.3v0.97h1.94l0.81,1.29-1.94,6.3h4.2l0.64,1.62,2.27-2.26,1.29-0.49-1.94,3.56-3.07,4.85h-1.29l-1.13-0.49-2.75,0.65-5.18,2.42-6.46,5.34-3.4,4.69-1.94,6.46-0.48,2.43-4.69,0.48-5.45,1.34-9.95-8.2-12.61-7.6-2.91-0.81-12.61,1.46-4.28,0.75-1.61-3.24-2.97-2.11-16.49,0.48-7.28,0.81-9.05,4.53-6.14,2.58-21.18,2.59,0.5-4.05,1.78-1.46,2.75-0.65,0.64-3.71,4.21-2.75,3.88-1.46,4.2-3.55,4.36-2.11,0.65-3.07,3.88-3.88,0.65-0.16s0,1.13,0.81,1.13c0.8,0,1.94,0.33,1.94,0.33l2.26-3.56,2.1-0.65,2.26,0.33,1.62-3.56,2.91-2.59,0.48-2.1,0.19-3.65,4.28-0.02,7.2-0.85,15.75-2.26,15.14-2.08,21.64-4.72,19.98-4.26,11.18-2.41,5.05-1.15zm4.27,33.2l2.59-2.5,3.15-2.59,1.54-0.65,0.16-2.02-0.65-6.14-1.45-2.34-0.65-1.86,0.73-0.25,2.75,5.5,0.4,4.45-0.16,3.39-3.4,1.54-2.83,2.42-1.13,1.21-1.05-0.16z" stroke="#FFF" stroke-miterlimit="4" stroke-dasharray="none" stroke-width="0.75" fill="#d3d3d3"/>
 <path d="M805.82,250.84l-1.86-1.82-1.23-0.69,1.44-2.02,2.89,1.95-1.24,2.58z" stroke="#FFF" stroke-miterlimit="4" stroke-dasharray="none" stroke-width="0.75" fill="#d3d3d3"/>
 <path d="M899.62,173.25l2.18-0.68,0.45-1.72,1.03,0.12,1.03,2.28-1.26,0.46-3.88,0.12,0.45-0.58zm-9.37,0.8l2.29-2.63h1.6l1.83,1.49-2.41,1.03-2.17,1.03-1.14-0.92zm-34.8-21.98l17.65-4.64,2.26-0.65,1.92-2.8,3.73-1.66,2.89,4.41-2.42,5.18-0.33,1.45,1.94,2.59,1.13-0.81h1.78l2.27,2.59,3.88,5.98,3.55,0.48,2.27-0.97,1.77-1.78-0.8-2.74-2.11-1.62-1.45,0.81-0.97-1.3,0.48-0.48,2.11-0.16,1.77,0.81,1.94,2.42,0.97,2.91,0.33,2.43-4.21,1.45-3.88,1.94-3.88,4.53-1.94,1.45v-0.97l2.43-1.45,0.48-1.78-0.8-3.07-2.91,1.45-0.81,1.46,0.48,2.26-2.06,1-2.75-4.53-3.4-4.36-2.07-1.81-6.53,1.87-5.09,1.05-20.68,4.59-0.66-4.76,0.64-10.59,4.29-0.89,6.79-1.29z" stroke="#FFF" stroke-miterlimit="4" stroke-dasharray="none" stroke-width="0.75" fill="#d3d3d3"/>
 <path d="M696.68,318.25l-51.9,5.02-15.75,1.77-4.63,0.52-3.86-0.03-0.23,4.1-8.18,0.26-6.95,0.65-8.09-0.12-1.42,7.07-1.69,5.48-3.3,2.75-1.34,4.38-0.33,2.59-4.04,2.26,1.46,3.56-0.97,4.36-0.97,0.79,108.16-10.41,0.4-3.95,1.81-1.49,2.83-0.75,0.68-3.72,4.09-2.7,4.05-1.5,4.08-3.57,4.44-2.02,0.52-3.07,4.07-3.98,0.55-0.12s0.03,1.13,0.84,1.13,1.94,0.36,1.94,0.36l2.26-3.59,2.07-0.65,2.28,0.3,1.59-3.53,2.96-2.65,0.42-1.94,0.31-3.71-2.15-0.2-2.6,2.03-6.99,0.03-18.36,2.39-8.06,1.9z" stroke="#FFF" stroke-miterlimit="4" stroke-dasharray="none" stroke-width="0.75" fill="#d3d3d3"/>
 <path d="M593.82,343.05l-3.98,0.72-5.11-0.63,0.42-1.61,2.98-2.56,0.95-3.66-1.83-2.97-78.42,2.51,1.6,6.86v8.23l1.37,10.98,0.23,37.83,2.29,1.95,2.97-1.38,2.74,1.15,0.68,6.57,55.62-1.14,1.15-2.09-0.29-3.55-1.82-2.97,1.6-1.49-1.6-2.51,0.68-2.51,1.37-5.6,2.52-2.07-0.69-2.28,3.66-5.37,2.74-1.37-0.11-1.49-0.35-1.83,2.86-5.6,2.4-1.26,0.39-3.42,1.77-1.24-3.14-0.49-1.35-4.01,2.81-2.38,0.55-2.02,1.28-4.04,1.06-3.26z" stroke="#FFF" stroke-miterlimit="4" stroke-dasharray="none" stroke-width="0.75" fill="#d3d3d3"/>
 <path d="M558.44,248.11l-2.52-3.08-1.14-2.29-64.36,2.4-2.29,0.11,1.26,2.52-0.23,2.29,2.52,3.88,3.08,4.12,3.09,2.74,2.16,0.23,1.5,0.91v2.98l-1.83,1.6-0.46,2.28,2.06,3.43,2.51,2.97,2.52,1.83,1.37,11.66,0.32,36.08,0.22,4.68,0.46,5.39,22.43-0.87,23.21-0.69,20.8-0.8,11.66-0.23,2.17,3.43-0.69,3.3-3.08,2.41-0.58,1.84,5.38,0.45,3.9-0.68,1.72-5.5,0.65-5.85,2.1-2.56,2.59-1.49,0.05-3.05,1.02-1.93-1.7-2.55-1.33,0.99-1.99-2.23-1.28-4.76,0.8-2.52-1.95-3.42-1.83-4.58-4.8-0.8-6.97-5.6-1.72-4.11,0.8-3.2,2.06-6.06,0.46-2.86-1.95-1.03-6.85-0.8-1.03-1.71-0.11-4.24-5.49-3.43-6.97-7.77-2.29-7.31-0.23-4.23,0.8-2.29z" stroke="#FFF" stroke-miterlimit="4" stroke-dasharray="none" stroke-width="0.75" fill="#d3d3d3"/>
 <path d="M672.29,355.55v2.18l0.16,2.11,0.65,3.39,3.4,7.92,2.42,9.86,1.46,6.15,1.61,4.85,1.46,6.95,2.1,6.3,2.59,3.4,0.48,3.39,1.94,0.81,0.16,2.1-1.78,4.85-0.48,3.24-0.16,1.94,1.61,4.36,0.33,5.33-0.81,2.43,0.64,0.81,1.46,0.81,0.2,3.21,2.24,3.35,2.25,2.17,7.92,0.16,10.82-0.65,21.51-1.29,5.45-0.68,4.57,0.03,0.17,2.91,2.58,0.81,0.33-4.37-1.62-4.52,1.13-1.62,5.82,0.81,4.98,0.32-0.78-6.3,2.27-10.02,1.45-4.21-0.48-2.58,3.33-6.25-0.51-1.35-1.91,0.7-2.59-1.29-0.65-2.1-1.29-3.56-2.26-2.1-2.59-0.65-1.62-4.85-2.92-6.33-4.2-1.94-2.11-1.94-1.29-2.59-2.1-1.94-2.26-1.29-2.27-2.91-3.07-2.26-4.53-1.78-0.48-1.46-2.43-2.91-0.48-1.45-3.4-4.97-3.51,0.1-3.76-2.36-1.42-1.29-0.32-1.78,0.87-1.94,2.23-1.11-0.64-2.1-41.87,4.99z" stroke="#FFF" stroke-miterlimit="4" stroke-dasharray="none" stroke-width="0.75" fill="#d3d3d3"/>
 <path d="M764.94,408.16l-1.77,0.97-2.59-1.29-0.65-2.1-1.29-3.56-2.26-2.1-2.59-0.65-1.62-4.85-2.74-5.98-4.21-1.94-2.1-1.94-1.29-2.58-2.1-1.94-2.27-1.3-2.26-2.91-3.07-2.26-4.53-1.78-0.48-1.45-2.43-2.91-0.48-1.46-3.4-5.17-3.39,0.16-4.05-2.42-1.29-1.3-0.32-1.78,0.81-1.94,2.26-0.97-0.51-2.28,5.77-2.34,9.11-4.59,7.78-0.81,16.11-0.42,2.64,1.88,1.68,3.35,4.3-0.6,12.61-1.46,2.91,0.81,12.61,7.6,10.11,8.12-5.42,5.46-2.59,6.14-0.48,6.3-1.62,0.81-1.13,2.75-2.43,0.65-2.1,3.55-2.75,2.75-2.26,3.4-1.62,0.81-3.55,3.39-2.91,0.16,0.97,3.24-5.02,5.49-2.1,1.29z" stroke="#FFF" stroke-miterlimit="4" stroke-dasharray="none" stroke-width="0.75" fill="#d3d3d3"/>
 <path d="M725.99,295.27l-2.29,2.4-3.58,4-4.92,5.46-1.22,1.72-0.06,2.1-4.38,2.16-5.66,3.4-7.23,1.8-51.87,4.9-15.76,1.77-4.62,0.52-3.87-0.03-0.22,4.22-8.18,0.14-6.95,0.65-7.99-0.06,1.21-1.32,2.5-1.54,0.22-3.2,0.92-1.83-1.61-2.54,0.8-1.91,2.27-1.77,2.1-0.65,2.75,1.29,3.55,1.29,1.13-0.32,0.17-2.26-1.3-2.43,0.33-2.26,1.94-1.45,2.58-0.65,1.62-0.65-0.81-1.78-0.65-1.94,1.51-0.99c0-0.04,1.26-3.52,1.24-3.66l3.05-1.48,5.32-0.97,4.5-0.48,1.39,1.62,1.53,0.87,1.59-3.1,3.19-1.29,2.2,1.49,0.41,1,1.17-0.27-0.16-2.95,3.13-1.75,2.15-1.07,1.53,1.66,3.32-0.05,0.59-1.57-0.37-2.26,2.6-4,4.78-3.44,0.7-4.83,2.93-0.46,3.79-1.64,2.44-1.71-0.2-1.57-1.14-1.45,0.57-3,4.18-0.11,2.3-0.75,3.35,1.43,2.05,4.36,5.14,0.01,2.05,2.21,1.61-0.15,2.6-1.27,5.24,0.57,2.58,0.22,1.68-2.06,2.62-1.42,1.88-0.71,0.65,2.83,2.04,1.06,2.65,2.09,0.11,5.67,0.81,1.57,2.59,1.56,0.77,2.29,4.16,3.44,1.81,3.62,2.45,1.66z" stroke="#FFF" stroke-miterlimit="4" stroke-dasharray="none" stroke-width="0.75" fill="#d3d3d3"/>
 <path d="M631.31,460.42l-1.49-14.33-2.75-18.75,0.16-14.06,0.81-31.04-0.16-16.65,0.16-6.42,44.49-3.62-0.15,2.18,0.16,2.1,0.65,3.4,3.39,7.92,2.43,9.86,1.45,6.14,1.62,4.85,1.45,6.95,2.1,6.31,2.59,3.39,0.49,3.4,1.94,0.81,0.16,2.1-1.78,4.85-0.49,3.23-0.16,1.94,1.62,4.37,0.32,5.33-0.81,2.43,0.65,0.8,1.46,0.81,0.32,2.89-5.59-0.35-6.79,0.65-25.55,2.9-10.41,1.41-0.22,2.88,1.78,1.78,2.59,1.94,0.58,7.93-5.55,2.58-2.74-0.33,2.74-1.94v-0.97l-3.07-5.98-2.26-0.65-1.46,4.37-1.29,2.75-0.65-0.16h-2.74z" stroke="#FFF" stroke-miterlimit="4" stroke-dasharray="none" stroke-width="0.75" fill="#d3d3d3"/>
 <path d="M607.97,459.16l-3.29-3.16,1.01-5.51-0.66-0.89-9.26,1.01-25.03,0.46-0.68-2.4,0.91-8.45,3.32-5.95,5.03-8.69-0.58-2.4,1.26-0.68,0.46-1.95-2.29-2.06-0.11-1.94-1.83-4.35-0.15-6.33-55.47,0.92,0.03,9.57,0.68,9.38,0.69,3.88,2.51,4.12,0.92,5.03,4.34,5.49,0.23,3.2,0.69,0.68-0.69,8.46-2.97,5.03,1.6,2.06-0.69,2.51-0.68,7.32-1.37,3.2,0.12,3.62,4.68-1.52,12.12,0.2,10.34,3.56,6.47,1.13,3.72-1.45,3.23,1.13,3.24,0.97,0.8-2.1-3.23-1.14-2.59,0.49-2.74-1.62s0.16-1.29,0.8-1.45c0.65-0.16,3.08-0.97,3.08-0.97l1.77,1.45,1.78-0.97,3.24,0.65,1.45,2.42,0.32,2.27,4.53,0.32,1.78,1.78-0.81,1.62-1.29,0.8,1.61,1.62,8.41,3.56,3.56-1.3,0.97-2.42,2.58-0.65,1.78-1.45,1.29,0.97,0.81,2.91-2.26,0.81,0.65,0.64,3.39-1.29,2.26-3.4,0.81-0.48-2.1-0.32,0.81-1.62-0.16-1.46,2.1-0.48,1.13-1.29,0.65,0.8s-0.16,3.08,0.64,3.08c0.81,0,4.21,0.64,4.21,0.64l4.04,1.94,0.97,1.46h2.91l1.13,0.97,2.26-3.07v-1.46h-1.29l-3.39-2.75-5.82-0.81-3.24-2.26,1.13-2.75,2.27,0.33,0.16-0.65-1.78-0.97v-0.48h3.23l1.78-3.08-1.29-1.94-0.32-2.74-1.46,0.16-1.94,2.1-0.65,2.59-3.07-0.65-0.97-1.78,1.78-1.94,1.9-3.45-1.06-2.41-1.16-3.98z" stroke="#FFF" stroke-miterlimit="4" stroke-dasharray="none" stroke-width="0.75" fill="#d3d3d3"/>
 <path d="M631.56,459.34l-0.26,1.26h-5.17l-1.45-0.81-2.11-0.32-6.78,1.94-1.78-0.81-2.59,4.2-1.1,0.78-1.13-2.49-1.14-3.88-3.43-3.2,1.14-5.55-0.68-0.91-1.83,0.23-7.92,0.87-24.54,0.37-0.77-2.22,0.87-8.38,3.12-5.67,5.22-9.15-0.44-2.43,1.23-0.66,0.44-1.92-2.32-2.07-0.11-2.15-1.84-4.12-0.11-5.96,1.33-2.48-0.22-3.42-1.77-3.08,1.52-1.48-1.57-2.5,0.46-1.65,1.58-6.53,2.48-2.04-0.64-2.36,3.66-5.31,2.83-1.35-0.22-1.68-0.29-1.68,2.88-5.57,2.34-1.23,0.16-0.89,37.34-3.88,0.18,6.28,0.17,16.65-0.81,31.04-0.16,14.07,2.74,18.75,1.49,13.39z" stroke="#FFF" stroke-miterlimit="4" stroke-dasharray="none" stroke-width="0.75" fill="#d3d3d3"/>
 <path d="M569.19,199.58l0.27,2.79,2.22,0.58,0.95,1.22,0.5,1.86,3.8,3.36,0.68,2.39-0.67,3.42-1.58,3.24-0.8,2.74-2.18,1.6-1.71,0.57-5.58,1.86-1.39,3.85,0.73,1.37,1.84,1.68-0.29,4.04-1.76,1.54-0.77,1.64,0.13,2.78-1.89,0.46-1.63,1.1-0.27,1.35,0.27,2.12-1.55,1.11-2.47-3.13-1.26-2.45-65.74,2.52-0.91,0.16-2.06-4.51-0.22-6.64-1.6-4.11-0.69-5.26-2.29-3.66-0.91-4.8-2.74-7.54-1.15-5.37-1.37-2.18-1.6-2.74,1.95-4.84,1.38-5.72-2.75-2.06-0.45-2.74,0.91-2.52h1.71l82.66-1.26,0.83,4.18,2.25,1.56,0.26,1.42-2.03,3.39,0.19,3.21,2.52,3.8,2.52,1.29,3.08,0.5,0.66,0.83z" stroke="#FFF" stroke-miterlimit="4" stroke-dasharray="none" stroke-width="0.75" fill="#d3d3d3"/>
 <path d="M475.24,128.82l-0.46-8.45-1.83-7.32-1.83-13.489-0.45-9.831-1.83-3.429-1.6-5.03v-10.288l0.68-3.887-1.82-5.451,30.13,0.035,0.33-8.245,0.64-0.161,2.27,0.485,1.94,0.808,0.8,5.496,1.46,6.143,1.62,1.617h4.85l0.32,1.455,6.3,0.323v2.102h4.85l0.33-1.293,1.13-1.132,2.26-0.647,1.3,0.97h2.91l3.88,2.587,5.33,2.425,2.42,0.485,0.49-0.97,1.45-0.485,0.49,2.91,2.59,1.293,0.48-0.485,1.29,0.162v2.101l2.59,0.97h3.07l1.62-0.808,3.23-3.233,2.59-0.485,0.81,1.778,0.48,1.293h0.97l0.97-0.808,8.89-0.323,1.78,3.071h0.65l0.71-1.084,4.44-0.371-0.61,2.28-3.94,1.837-9.24,4.061-4.78,2.007-3.07,2.586-2.43,3.557-2.26,3.88-1.78,0.808-4.52,5.01-1.3,0.16-4.32,2.76-2.47,3.21-0.23,3.19,0.1,8.04-1.38,1.69-5.08,3.76-2.23,5.98,2.87,2.24,0.68,3.22-1.85,3.24,0.17,3.75,0.37,6.73,3.02,3h3.33l1.89,3.13,3.38,0.51,3.86,5.67,7.09,4.12,2.14,2.87,0.67,6.44-81.21,1.14-0.33-35.67-0.46-2.97-4.12-3.43-1.14-1.83v-1.6l2.06-1.6,1.37-1.37,0.23-3.21z" stroke="#FFF" stroke-miterlimit="4" stroke-dasharray="none" stroke-width="0.75" fill="#d3d3d3"/>
 <path d="M380.34,320.82l-16.68-1.27-0.88,10.95,20.46,1.16,32.06,1.3-2.33,24.42-0.46,17.83,0.23,1.6,4.34,3.66,2.06,1.14,0.68-0.22,0.69-2.06,1.37,1.83h2.06v-1.38l2.74,1.38-0.45,3.88,4.11,0.23,2.52,1.14,4.11,0.69,2.52,1.83,2.28-2.06,3.43,0.69,2.52,3.43h0.91v2.28l2.29,0.69,2.28-2.29,1.83,0.69h2.52l0.91,2.51,6.3,2.08,1.37-0.68,1.83-4.12h1.15l1.14,2.06,4.11,0.69,3.66,1.37,2.97,0.91,1.83-0.91,0.69-2.52h4.34l2.06,0.92,2.74-2.06h1.15l0.68,1.6h4.12l1.6-2.06,1.83,0.46,2.06,2.51,3.2,1.83,3.2,0.92,1.94,1.12-0.39-37.22-1.37-10.97-0.16-8.88-1.44-6.53-0.78-7.18-0.07-3.82-12.14,0.32-46.41-0.46-45.04-2.06-24.29-1.37z" stroke="#FFF" stroke-miterlimit="4" stroke-dasharray="none" stroke-width="0.75" fill="#d3d3d3"/>
 <path d="M361.46,330.57l22.7,1.09,31.09,1.14-2.34,23.46-0.29,18.15,0.06,2.08,4.35,3.82,1.98,1.45,1.19-0.56,0.37-1.82,1.14,1.81,2.11,0.04v-1.45l1.67,0.97,1.14,0.41-0.36,3.97,4.09,0.09,2.92,1.2,3.96,0.52,2.38,2.08,2.12-2.07,3.73,0.61,2.22,3.22,1.08,0.33-0.16,1.96,2.21,0.79,2.33-2.05,2.13,0.61,2.23,0.04,0.93,2.43,6.33,2.12,1.6-0.77,1.49-4.18h0.34l0.9,0.09,1.23,2.06,3.93,0.67,3.34,1.12,3.42,1.2,1.84-0.98,0.72-2.51,4.45,0.04,1.81,0.93,2.8-2.1,1.1,0.04,0.85,1.61h4.06l1.52-2.03,1.87,0.41,1.94,2.4,3.52,2.04,2.86,0.81,1.51,0.8,2.45,2,3.04-1.33,2.69,1.14,0.57,6.11-0.04,9.7,0.68,9.53,0.71,3.61,2.67,4.42,0.9,4.95,4.22,5.54,0.19,3.14,0.75,0.79-0.73,8.38-2.87,5,1.53,2.16-0.63,2.33-0.67,7.41-1.5,3.34,0.29,3.5-5.66,1.58-9.87,4.53-0.97,1.94-2.58,1.94-2.1,1.46-1.3,0.8-5.66,5.34-2.74,2.1-5.34,3.23-5.66,2.43-6.3,3.39-1.78,1.46-5.82,3.56-3.39,0.64-3.88,5.5-4.05,0.32-0.97,1.94,2.27,1.94-1.46,5.5-1.29,4.52-1.13,3.88-0.81,4.53,0.81,2.43,1.78,6.95,0.97,6.14,1.77,2.75-0.97,1.45-3.07,1.94-5.66-3.88-5.49-1.13-1.29,0.49-3.24-0.65-4.2-3.07-5.17-1.13-7.6-3.4-2.1-3.88-1.3-6.46-3.23-1.94-0.65-2.27,0.65-0.64,0.32-3.4-1.29-0.65-0.65-0.97,1.3-4.36-1.62-2.26-3.23-1.3-3.4-4.36-3.55-6.63-4.21-2.59,0.16-1.94-5.33-12.28-0.81-4.21-1.78-1.94-0.16-1.45-5.98-5.34-2.59-3.07v-1.13l-2.58-2.1-6.79-1.13-7.44-0.65-3.07-2.26-4.53,1.78-3.55,1.45-2.27,3.23-0.97,3.72-4.36,6.15-2.43,2.42-2.58-0.97-1.78-1.13-1.94-0.65-3.88-2.26v-0.65l-1.78-1.94-5.17-2.1-7.44-7.76-2.26-4.69v-8.08l-3.24-6.47-0.48-2.74-1.62-0.97-1.13-2.11-5.01-2.1-1.29-1.61-7.12-7.93-1.29-3.23-4.69-2.26-1.45-4.37-2.59-2.91-1.94-0.48-0.65-4.68,8,0.69,29.04,2.74,29.03,1.6,2.24-19.46,3.88-55.56,1.6-18.74,1.37,0.03m99.03,229.66l-0.56-7.12-2.75-7.19-0.57-7.03,1.54-8.25,3.31-6.87,3.48-5.41,3.15-3.56,0.65,0.24-4.77,6.63-4.37,6.55-2.02,6.63-0.32,5.17,0.89,6.14,2.59,7.2,0.48,5.17,0.16,1.46-0.89,0.24z" stroke="#FFF" stroke-miterlimit="4" stroke-dasharray="none" stroke-width="0.75" fill="#d3d3d3"/>
 <path d="M288.15,424.01l-0.77-4.74,8.64,0.52,30.17,2.95,27.27,1.69,2.22-18.71,3.85-55.88,1.74-19.39,1.57,0.13,0.83-11.16-104.01-10.64-17.49,120.44,15.46,1.99,1.29-10.03,29.23,2.83z" stroke="#FFF" stroke-miterlimit="4" stroke-dasharray="none" stroke-width="0.75" fill="#d3d3d3"/>
 <path d="M507.88,324.38l-12.62,0.2-46.09-0.45-44.55-2.06-24.63-1.26,3.89-64.59,22.08,0.67,40.29,0.84,44.3,0.99h5.1l2.18,2.16,2.02-0.02,1.64,1.02-0.06,3-1.83,1.73-0.33,2.23,1.84,3.4,2.95,3.2,2.33,1.61,1.3,11.24,0.19,36.09z" stroke="#FFF" stroke-miterlimit="4" stroke-dasharray="none" stroke-width="0.75" fill="#d3d3d3"/>
 <path d="M486.1,240.7l3.23,7.02-0.13,2.3,3.46,5.5,2.72,3.15h-5.05l-43.48-0.94-40.79-0.89-22.25-0.78,1.07-21.33-32.32-2.92,4.35-44.01,15.54,1.03,20.12,1.14,17.83,1.14,23.78,1.15,10.75-0.46,2.05,2.29,4.8,2.97,1.15,0.91,4.34-1.37,3.89-0.46,2.74-0.23,1.83,1.38,4.06,1.6,2.97,1.6,0.46,1.6,0.91,2.05h1.83l0.8,0.05,0.89,4.68,2.92,8.47,0.58,3.76,2.52,3.77,0.57,5.12,1.61,4.24,0.25,6.47z" stroke="#FFF" stroke-miterlimit="4" stroke-dasharray="none" stroke-width="0.75" fill="#d3d3d3"/>
 <path d="M476.45,204.02l-0.05-0.58-2.9-4.84,1.86-4.71,1.5-5.89-2.79-2.08-0.38-2.74,0.79-2.56,3.19,0.02-0.12-5.01-0.34-30.17-0.61-3.77-4.08-3.33-0.98-1.68-0.06-1.61,2.02-1.53,1.53-1.66,0.25-2.66-58.26-1.6-54.8-3.45-5.32,63.69,14.59,0.91,19.95,1.2,17.74,0.93,23.78,1.3,11.98-0.42,1.97,2.24,5.19,3.26,0.76,0.72,4.55-1.45,6.54-0.62,1.67,1.34,4.21,1.6,2.94,1.63,0.4,1.49,1.04,2.24,2.24-0.21z" stroke="#FFF" stroke-miterlimit="4" stroke-dasharray="none" stroke-width="0.75" fill="#d3d3d3"/>
 <path d="M475.31,128.92l-0.62-8.44-1.68-6.81-1.89-13.03-0.46-10.982-1.73-3.078-1.76-5.194,0.03-10.444,0.62-3.824-1.83-5.468-28.64-0.564-18.59-0.647-26.52-1.293-22.94-2.134-7,67.178,54.94,3.34,58.07,1.39z" stroke="#FFF" stroke-miterlimit="4" stroke-dasharray="none" stroke-width="0.75" fill="#d3d3d3"/>
 <path d="M360.38,143.28l-106.75-13.46-14.08,88.46,113.27,13.58,7.56-88.58z" stroke="#FFF" stroke-miterlimit="4" stroke-dasharray="none" stroke-width="0.75" fill="#d3d3d3"/>
 <path d="M369.21,56.969l-30.67-2.808-29.27-3.556-29.26-4.042-32.33-5.335-18.43-3.394-32.72-6.933-4.48,21.347,3.43,7.545-1.37,4.572,1.83,4.573,3.2,1.372,4.62,10.769,2.69,3.177,0.46,1.143,3.43,1.143,0.46,2.057-7.09,17.601v2.52l2.51,3.2h0.92l4.8-2.97,0.69-1.15,1.6,0.69-0.23,5.26,2.74,12.57,2.97,2.52,0.92,0.68,1.83,2.29-0.46,3.43,0.69,3.43,1.14,0.91,2.28-2.28h2.75l3.2,1.6,2.51-0.92h4.12l3.66,1.6,2.74-0.46,0.46-2.97,2.97-0.68,1.37,1.37,0.46,3.2,1.42,0.83,1.89-11.03,106.75,13.43,8.8-86.301z" stroke="#FFF" stroke-miterlimit="4" stroke-dasharray="none" stroke-width="0.75" fill="#d3d3d3"/>
 <path d="M380.03,320.96l4.91-86.32-113.39-12.64-12.22,87.93,120.7,11.03z" stroke="#FFF" stroke-miterlimit="4" stroke-dasharray="none" stroke-width="0.75" fill="#d3d3d3"/>
 <path d="M148.48,176.48l8.77-35.22,1.37-4.23,2.52-5.94-1.26-2.29-2.52,0.12-0.8-1.03,0.46-1.14,0.34-3.09,4.46-5.49,1.83-0.45,1.14-1.15,0.58-3.2,0.91-0.68,3.89-5.83,3.88-4.35,0.23-3.771-3.43-2.629-1.53-4.401,13.62-63.341,13.52,2.528-4.41,21.383,3.56,7.485-1.58,4.661,1.97,4.641,3.14,1.255,3.83,9.557,3.52,4.437,0.5,1.143,3.35,1.143,0.36,2.097-6.97,17.372-0.16,2.57,2.63,3.32,0.9-0.05,4.92-3.02,0.67-1.1,1.57,0.66-0.28,5.36,2.74,12.58,3.91,3.18,1.68,2.16-0.71,4.09,1.06,2.8,1.07,1.09,2.48-2.35,2.84,0.05,2.92,1.34,2.78-0.69,3.8-0.16,3.98,1.6,2.74-0.29,0.5-3.04,2.93-0.76,1.26,1.51,0.44,2.95,1.42,1.21-8.38,53.61s-87.97-16.7-94.96-18.21z" stroke="#FFF" stroke-miterlimit="4" stroke-dasharray="none" stroke-width="0.75" fill="#d3d3d3"/>
 <path d="M259.5,310.11l-83.75-11.88,20.59-112.54,46.78,8.75-1.49,10.63-2.31,13.17,7.81,0.93,16.41,1.8,8.21,0.86-12.25,88.28z" stroke="#FFF" stroke-miterlimit="4" stroke-dasharray="none" stroke-width="0.75" fill="#d3d3d3"/>
 <path d="M144.91,382.63l-2.63,2.16-0.32,1.45,0.49,0.97,18.91,10.67,12.12,7.6,14.72,8.57,16.81,10.02,12.28,2.43,24.96,2.7,17.25-119.13-83.73-11.91-3.1,16.41-1.6,0.01-1.72,2.63-2.51-0.11-1.26-2.74-2.74-0.35-0.92-1.14h-0.91l-0.92,0.57-1.94,1.03-0.11,6.97-0.23,1.72-0.57,12.57-1.49,2.17-0.57,3.32,2.74,4.91,1.26,5.83,0.8,1.03,1.03,0.57-0.12,2.29-1.6,1.37-3.43,1.72-1.94,1.94-1.49,3.66-0.57,4.91-2.85,2.75-2.06,0.68,0.13,0.83-0.45,1.72,0.45,0.8,3.66,0.57-0.57,2.74-1.49,2.17-3.77,0.92z" stroke="#FFF" stroke-miterlimit="4" stroke-dasharray="none" stroke-width="0.75" fill="#d3d3d3"/>
 <path d="M196.39,185.58l-23.64,128.82-1.83,0.35-1.57,2.4-2.37,0.01-1.48-2.74-2.61-0.38-0.78-1.11-1.03-0.05-2.78,1.65-0.31,6.78-0.36,5.78-0.35,8.59-1.45,2.09-2.44-1.07-69.078-104.21,18.988-67.58,93.09,20.67z" stroke="#FFF" stroke-miterlimit="4" stroke-dasharray="none" stroke-width="0.75" fill="#d3d3d3"/>
 <path d="M148.72,175.53l8.85-34.8,1.05-4.23,2.36-5.62-0.62-1.17-2.51-0.04-1.29-1.67,0.46-1.47,0.51-3.24,4.45-5.49,1.83-1.1,1.15-1.14,1.48-3.57,4.05-5.67,3.56-3.86,0.23-3.451-3.27-2.469-1.78-4.643-12.66-3.612-15.09-3.543-15.43,0.114-0.46-1.372-5.49,2.058-4.46-0.572-2.4-1.6-1.25,0.686-4.69-0.229-1.72-1.372-5.25-2.057-0.804,0.114-4.344-1.486-1.944,1.829-6.172-0.343-5.945-4.115,0.686-0.8,0.229-7.773-2.286-3.887-4.115-0.572-0.686-2.514-2.354-0.467-5.799,2.059-2.263,6.466-3.233,10.023-3.233,6.467-5.012,14.064-6.466,13.577-8.083,12.61-1.94,2.91-0.809,8.57,0.386,12.08,112.58,26.32z" stroke="#FFF" stroke-miterlimit="4" stroke-dasharray="none" stroke-width="0.75" fill="#d3d3d3"/>
 <path d="M102.07,7.6118l4.37,1.4549,9.7,2.7483,8.57,1.94,20.04,5.658,22.96,5.658,15.22,3.207-13.63,63.586-12.45-3.525-15.5-3.571-15.23,0.033-0.46-1.344-5.6,2.179-4.59-0.737-2.15-1.584-1.31,0.658-4.74-0.14-1.7-1.35-5.26-2.112-0.737,0.147-4.389-1.525-1.893,1.818-6.266-0.299-5.926-4.126,0.779-0.932,0.122-7.678-2.282-3.84-4.116-0.607-0.677-2.51-2.276-0.457-3.555,1.23-2.263-3.219,0.324-2.91,2.748-0.323,1.616-4.042-2.586-1.131,0.161-3.718,4.365-0.647-2.748-2.748-1.455-7.113,0.647-2.91v-7.922l-1.778-3.233,2.263-9.376,2.101,0.485,2.425,2.91,2.749,2.586,3.233,1.94,4.526,2.102,3.072,0.647,2.91,1.454,3.395,0.97,2.263-0.161v-2.425l1.293-1.132,2.105-1.293,0.32,1.132,0.32,1.778-2.26,0.485-0.323,2.101,1.773,1.455,1.14,2.425,0.64,1.94,1.46-0.161,0.16-1.294-0.97-1.293-0.49-3.233,0.81-1.779-0.64-1.454v-2.264l1.77-3.556-1.13-2.587-2.42-4.8496,0.32-0.8083,1.13-0.8083zm-9.453,5.9792l2.02-0.162,0.485,1.374,1.536-1.616h2.344l0.808,1.535-1.535,1.698,0.646,0.808-0.727,2.021-1.374,0.404s-0.889,0.081-0.889-0.242c0-0.324,1.455-2.587,1.455-2.587l-1.698-0.566-0.323,1.455-0.728,0.647-1.535-2.264-0.485-2.505z" stroke="#FFF" stroke-miterlimit="4" stroke-dasharray="none" stroke-width="0.75" fill="#d3d3d3"/>
 <path d="M144.69,382.2l3.94-0.49,1.49-2.01,0.55-2.94-3.56-0.59-0.51-0.67,0.48-2.03-0.16-0.59,1.92-0.62,3.04-2.84,0.58-4.99,1.38-3.4,1.95-2.17,3.52-1.59,1.65-1.6,0.07-2.11-0.99-0.58-1.03-1.08-1.15-5.84-2.69-4.83,0.57-3.51-2.42-1.03-69.062-104.18,18.902-67.6-67.08-15.7-1.507,4.74-0.162,7.43-5.173,11.8-3.071,2.59-0.324,1.13-1.778,0.81-1.455,4.2-0.808,3.24,2.748,4.2,1.617,4.2,1.131,3.56-0.323,6.47-1.778,3.07-0.647,5.82-0.97,3.72,1.778,3.88,2.749,4.52,2.263,4.85,1.293,4.04-0.323,3.24-0.323,0.48v2.1l5.658,6.31-0.485,2.42-0.647,2.27-0.647,1.94,0.162,8.24,2.102,3.72,1.94,2.59,2.748,0.48,0.97,2.75-1.132,3.56-2.101,1.61h-1.132l-0.808,3.88,0.485,2.91,3.233,4.37,1.616,5.33,1.455,4.69,1.294,3.07,3.395,5.82,1.454,2.59,0.485,2.91,1.617,0.97v2.42l-0.808,1.94-1.779,7.12-0.485,1.94,2.425,2.74,4.204,0.49,4.526,1.78,3.88,2.1h2.91l2.91,3.07,2.586,4.85,1.132,2.26,3.88,2.11,4.85,0.8,1.454,2.1,0.647,3.24-1.455,0.64,0.324,0.97,3.233,0.81,2.748,0.16,3.16-1.68,3.88,4.2,0.808,2.26,2.591,4.21,0.32,3.23v9.38l0.48,1.78,10.03,1.45,19.72,2.75,13.84,1.35zm-88.131-43.72l1.294,1.54-0.162,1.29-3.233-0.08-0.566-1.21-0.647-1.46,3.314-0.08zm1.94,0l1.213-0.65,3.556,2.11,3.072,1.21-0.889,0.65-4.527-0.25-1.617-1.61-0.808-1.46zm20.693,19.8l1.778,2.35,0.808,0.97,1.536,0.56,0.566-1.45-0.97-1.78-2.667-2.02-1.051,0.16v1.21zm-1.455,8.65l1.778,3.16,1.213,1.94-1.455,0.24-1.294-1.21s-0.727-1.46-0.727-1.86v-2.19l0.485-0.08z" stroke="#FFF" stroke-miterlimit="4" stroke-dasharray="none" stroke-width="0.75" fill="#d3d3d3"/>
</svg>
